<svg xmlns="http://www.w3.org/2000/svg" width="1200" height="627" viewBox="0 0 1200 627">
  <defs>
    <linearGradient id="shade" x1="0" x2="1" y1="0" y2="0">
      <stop offset="0" stop-color="#08243D" stop-opacity="0.82"/>
      <stop offset="0.58" stop-color="#08243D" stop-opacity="0.42"/>
      <stop offset="1" stop-color="#08243D" stop-opacity="0.16"/>
    </linearGradient>
  </defs>
  <image href="../../../../assets/photos/saint-etienne-design.webp" x="0" y="0" width="1200" height="627" preserveAspectRatio="xMidYMid slice"/>
  <rect width="1200" height="627" fill="url(#shade)"/>
  <rect x="0" y="0" width="1200" height="9" fill="#16717C"/>
  <rect x="34" y="34" width="638" height="559" rx="30" fill="#08243D" opacity="0.89"/>
  <rect x="44" y="44" width="618" height="539" rx="24" fill="none" stroke="#16717C" stroke-opacity="0.58" stroke-width="2"/>
  <rect x="70" y="62" width="244" height="82" rx="22" fill="#fff" opacity="0.94"/>
  <image href="../../../../assets/logo-territoires-vivants-france.png" x="86" y="73" width="212" height="60" preserveAspectRatio="xMidYMid meet"/>
  <rect x="70" y="166" width="250" height="36" rx="18" fill="#16717C" opacity="0.94"/>
  <text x="88" y="190" fill="#fff" font-family="Arial, Segoe UI, sans-serif" font-size="17" font-weight="700" letter-spacing="1.1">TERRITOIRE PILOTE</text>
  <text x="70" y="280" fill="#fff" font-family="Arial, Segoe UI, sans-serif" font-size="48" font-weight="800">
<tspan x="70" dy="0">Saint-Étienne, premier</tspan>
<tspan x="70" dy="54.72">terrain d&#x27;action</tspan>
</text>
  <text x="70" y="410" fill="#E8F2E8" font-family="Arial, Segoe UI, sans-serif" font-size="22" font-weight="400">
<tspan x="70" dy="0">Un territoire concret pour tester la méthode TVF :</tspan>
<tspan x="70" dy="27.5">vacance, réemploi, friches, commerces et coopération</tspan>
<tspan x="70" dy="27.5">locale.</tspan>
</text>
  <rect x="70" y="504" width="350" height="52" rx="26" fill="#fff" opacity="0.94"/>
  <text x="92" y="537" fill="#08243D" font-family="Arial, Segoe UI, sans-serif" font-size="20" font-weight="700">Découvrir le dossier</text>
  <text x="450" y="537" fill="#E8F2E8" font-family="Arial, Segoe UI, sans-serif" font-size="17">territoiresvivantsfrance.fr</text>
</svg>